<mxfile host="app.diagrams.net" agent="Mozilla/5.0 (Windows NT 10.0; Win64; x64) AppleWebKit/537.36 (KHTML, like Gecko) Chrome/132.0.0.0 Safari/537.36" version="26.0.10">
  <diagram name="Page-1" id="58cdce13-f638-feb5-8d6f-7d28b1aa9fa0">
    <mxGraphModel dx="1114" dy="592" grid="1" gridSize="10" guides="1" tooltips="1" connect="1" arrows="1" fold="1" page="1" pageScale="1" pageWidth="1100" pageHeight="850" background="none" math="0" shadow="0">
      <root>
        <mxCell id="0" />
        <mxCell id="1" parent="0" />
        <mxCell id="BId1RjeWuYx0KZdLfufM-1" value="" style="ellipse;html=1;shape=startState;fillColor=#000000;strokeColor=#ff0000;" vertex="1" parent="1">
          <mxGeometry x="150" y="40" width="30" height="30" as="geometry" />
        </mxCell>
        <mxCell id="BId1RjeWuYx0KZdLfufM-2" value="" style="edgeStyle=orthogonalEdgeStyle;html=1;verticalAlign=bottom;endArrow=open;endSize=8;strokeColor=#ff0000;rounded=0;" edge="1" source="BId1RjeWuYx0KZdLfufM-1" parent="1">
          <mxGeometry relative="1" as="geometry">
            <mxPoint x="165" y="130" as="targetPoint" />
          </mxGeometry>
        </mxCell>
        <mxCell id="BId1RjeWuYx0KZdLfufM-3" value="Logged out" style="rounded=1;whiteSpace=wrap;html=1;" vertex="1" parent="1">
          <mxGeometry x="105" y="130" width="120" height="60" as="geometry" />
        </mxCell>
        <mxCell id="BId1RjeWuYx0KZdLfufM-4" value="" style="edgeStyle=orthogonalEdgeStyle;html=1;verticalAlign=bottom;endArrow=open;endSize=8;strokeColor=#ff0000;rounded=0;entryX=0;entryY=0.5;entryDx=0;entryDy=0;exitX=1;exitY=0.5;exitDx=0;exitDy=0;" edge="1" parent="1" source="BId1RjeWuYx0KZdLfufM-3" target="BId1RjeWuYx0KZdLfufM-6">
          <mxGeometry relative="1" as="geometry">
            <mxPoint x="164.5" y="260" as="targetPoint" />
            <mxPoint x="250" y="160" as="sourcePoint" />
            <Array as="points">
              <mxPoint x="280" y="160" />
              <mxPoint x="280" y="160" />
            </Array>
          </mxGeometry>
        </mxCell>
        <mxCell id="BId1RjeWuYx0KZdLfufM-5" value="User log in&amp;nbsp;" style="edgeLabel;html=1;align=center;verticalAlign=middle;resizable=0;points=[];" vertex="1" connectable="0" parent="BId1RjeWuYx0KZdLfufM-4">
          <mxGeometry x="-0.0857" y="2" relative="1" as="geometry">
            <mxPoint as="offset" />
          </mxGeometry>
        </mxCell>
        <mxCell id="BId1RjeWuYx0KZdLfufM-6" value="Authenticating" style="rounded=1;whiteSpace=wrap;html=1;" vertex="1" parent="1">
          <mxGeometry x="360" y="130" width="120" height="60" as="geometry" />
        </mxCell>
        <mxCell id="BId1RjeWuYx0KZdLfufM-7" value="" style="edgeStyle=orthogonalEdgeStyle;html=1;verticalAlign=bottom;endArrow=open;endSize=8;strokeColor=#ff0000;rounded=0;exitX=0.5;exitY=1;exitDx=0;exitDy=0;" edge="1" parent="1">
          <mxGeometry relative="1" as="geometry">
            <mxPoint x="180" y="280" as="targetPoint" />
            <mxPoint x="410" y="190" as="sourcePoint" />
            <Array as="points">
              <mxPoint x="410" y="240" />
              <mxPoint x="180" y="240" />
            </Array>
          </mxGeometry>
        </mxCell>
        <mxCell id="BId1RjeWuYx0KZdLfufM-10" value="A" style="edgeLabel;html=1;align=center;verticalAlign=middle;resizable=0;points=[];" vertex="1" connectable="0" parent="BId1RjeWuYx0KZdLfufM-7">
          <mxGeometry x="0.2125" y="2" relative="1" as="geometry">
            <mxPoint as="offset" />
          </mxGeometry>
        </mxCell>
        <mxCell id="BId1RjeWuYx0KZdLfufM-11" value="&lt;span style=&quot;font-size: 12px; text-wrap-mode: wrap; background-color: rgb(251, 251, 251);&quot;&gt;Authentication succeeds (Admin)&lt;/span&gt;" style="edgeLabel;html=1;align=center;verticalAlign=middle;resizable=0;points=[];" vertex="1" connectable="0" parent="BId1RjeWuYx0KZdLfufM-7">
          <mxGeometry x="0.175" y="3" relative="1" as="geometry">
            <mxPoint as="offset" />
          </mxGeometry>
        </mxCell>
        <mxCell id="BId1RjeWuYx0KZdLfufM-9" value="Admin access" style="rounded=1;whiteSpace=wrap;html=1;" vertex="1" parent="1">
          <mxGeometry x="120" y="280" width="120" height="60" as="geometry" />
        </mxCell>
        <mxCell id="BId1RjeWuYx0KZdLfufM-12" value="" style="edgeStyle=orthogonalEdgeStyle;html=1;verticalAlign=bottom;endArrow=open;endSize=8;strokeColor=#ff0000;rounded=0;" edge="1" parent="1">
          <mxGeometry relative="1" as="geometry">
            <mxPoint x="670" y="280" as="targetPoint" />
            <mxPoint x="410" y="190" as="sourcePoint" />
            <Array as="points">
              <mxPoint x="410" y="200" />
              <mxPoint x="410" y="240" />
              <mxPoint x="670" y="240" />
            </Array>
          </mxGeometry>
        </mxCell>
        <mxCell id="BId1RjeWuYx0KZdLfufM-13" value="A" style="edgeLabel;html=1;align=center;verticalAlign=middle;resizable=0;points=[];" vertex="1" connectable="0" parent="BId1RjeWuYx0KZdLfufM-12">
          <mxGeometry x="0.2125" y="2" relative="1" as="geometry">
            <mxPoint as="offset" />
          </mxGeometry>
        </mxCell>
        <mxCell id="BId1RjeWuYx0KZdLfufM-14" value="&lt;span style=&quot;font-size: 12px; text-wrap-mode: wrap; background-color: rgb(251, 251, 251);&quot;&gt;Authentication succeeds (Houseowner)&lt;/span&gt;" style="edgeLabel;html=1;align=center;verticalAlign=middle;resizable=0;points=[];" vertex="1" connectable="0" parent="BId1RjeWuYx0KZdLfufM-12">
          <mxGeometry x="0.175" y="3" relative="1" as="geometry">
            <mxPoint as="offset" />
          </mxGeometry>
        </mxCell>
        <mxCell id="BId1RjeWuYx0KZdLfufM-15" value="Houseowner access" style="rounded=1;whiteSpace=wrap;html=1;" vertex="1" parent="1">
          <mxGeometry x="610" y="280" width="120" height="60" as="geometry" />
        </mxCell>
        <mxCell id="BId1RjeWuYx0KZdLfufM-17" value="" style="edgeStyle=orthogonalEdgeStyle;html=1;verticalAlign=bottom;endArrow=open;endSize=8;strokeColor=#ff0000;rounded=0;" edge="1" parent="1">
          <mxGeometry relative="1" as="geometry">
            <mxPoint x="670" y="400" as="targetPoint" />
            <mxPoint x="669.5" y="360" as="sourcePoint" />
            <Array as="points">
              <mxPoint x="669.5" y="340" />
              <mxPoint x="669.5" y="340" />
            </Array>
          </mxGeometry>
        </mxCell>
        <mxCell id="BId1RjeWuYx0KZdLfufM-19" value="Houseowner issues command" style="edgeLabel;html=1;align=center;verticalAlign=middle;resizable=0;points=[];" vertex="1" connectable="0" parent="BId1RjeWuYx0KZdLfufM-17">
          <mxGeometry x="0.2755" y="2" relative="1" as="geometry">
            <mxPoint as="offset" />
          </mxGeometry>
        </mxCell>
        <mxCell id="BId1RjeWuYx0KZdLfufM-18" value="Executing Command" style="rounded=1;whiteSpace=wrap;html=1;" vertex="1" parent="1">
          <mxGeometry x="610" y="400" width="120" height="60" as="geometry" />
        </mxCell>
        <mxCell id="BId1RjeWuYx0KZdLfufM-20" value="System Monitoring" style="rounded=1;whiteSpace=wrap;html=1;" vertex="1" parent="1">
          <mxGeometry x="120" y="400" width="120" height="60" as="geometry" />
        </mxCell>
        <mxCell id="BId1RjeWuYx0KZdLfufM-22" value="" style="edgeStyle=orthogonalEdgeStyle;html=1;verticalAlign=bottom;endArrow=open;endSize=8;strokeColor=#ff0000;rounded=0;" edge="1" parent="1">
          <mxGeometry relative="1" as="geometry">
            <mxPoint x="180.5" y="400" as="targetPoint" />
            <mxPoint x="180" y="360" as="sourcePoint" />
            <Array as="points">
              <mxPoint x="180" y="340" />
              <mxPoint x="180" y="340" />
            </Array>
          </mxGeometry>
        </mxCell>
        <mxCell id="BId1RjeWuYx0KZdLfufM-23" value="Admin configure automation events" style="edgeLabel;html=1;align=center;verticalAlign=middle;resizable=0;points=[];" vertex="1" connectable="0" parent="BId1RjeWuYx0KZdLfufM-22">
          <mxGeometry x="0.2755" y="2" relative="1" as="geometry">
            <mxPoint as="offset" />
          </mxGeometry>
        </mxCell>
        <mxCell id="BId1RjeWuYx0KZdLfufM-24" value="" style="edgeStyle=orthogonalEdgeStyle;html=1;verticalAlign=bottom;endArrow=open;endSize=8;strokeColor=#ff0000;rounded=0;entryX=0;entryY=0.5;entryDx=0;entryDy=0;exitX=0.5;exitY=1;exitDx=0;exitDy=0;" edge="1" parent="1" source="BId1RjeWuYx0KZdLfufM-20" target="BId1RjeWuYx0KZdLfufM-55">
          <mxGeometry relative="1" as="geometry">
            <mxPoint x="180" y="520" as="targetPoint" />
            <mxPoint x="179.5" y="480" as="sourcePoint" />
            <Array as="points">
              <mxPoint x="180" y="815" />
            </Array>
          </mxGeometry>
        </mxCell>
        <mxCell id="BId1RjeWuYx0KZdLfufM-25" value="Configuration completed" style="edgeLabel;html=1;align=center;verticalAlign=middle;resizable=0;points=[];" vertex="1" connectable="0" parent="BId1RjeWuYx0KZdLfufM-24">
          <mxGeometry x="0.2755" y="2" relative="1" as="geometry">
            <mxPoint x="-2" y="-144" as="offset" />
          </mxGeometry>
        </mxCell>
        <mxCell id="BId1RjeWuYx0KZdLfufM-29" value="" style="edgeStyle=orthogonalEdgeStyle;html=1;verticalAlign=bottom;endArrow=open;endSize=8;strokeColor=#ff0000;rounded=0;entryX=0;entryY=0.5;entryDx=0;entryDy=0;exitX=0;exitY=0.5;exitDx=0;exitDy=0;" edge="1" parent="1" source="BId1RjeWuYx0KZdLfufM-18" target="BId1RjeWuYx0KZdLfufM-15">
          <mxGeometry relative="1" as="geometry">
            <mxPoint x="400" y="520" as="targetPoint" />
            <mxPoint x="600" y="430" as="sourcePoint" />
            <Array as="points">
              <mxPoint x="500" y="430" />
              <mxPoint x="500" y="310" />
            </Array>
          </mxGeometry>
        </mxCell>
        <mxCell id="BId1RjeWuYx0KZdLfufM-30" value="Device Offline" style="edgeLabel;html=1;align=center;verticalAlign=middle;resizable=0;points=[];" vertex="1" connectable="0" parent="BId1RjeWuYx0KZdLfufM-29">
          <mxGeometry x="0.2755" y="2" relative="1" as="geometry">
            <mxPoint x="2" y="47" as="offset" />
          </mxGeometry>
        </mxCell>
        <mxCell id="BId1RjeWuYx0KZdLfufM-32" value="" style="edgeStyle=orthogonalEdgeStyle;html=1;verticalAlign=bottom;endArrow=open;endSize=8;strokeColor=#ff0000;rounded=0;exitX=0.5;exitY=1;exitDx=0;exitDy=0;entryX=0.442;entryY=0.017;entryDx=0;entryDy=0;entryPerimeter=0;" edge="1" parent="1" source="BId1RjeWuYx0KZdLfufM-18" target="BId1RjeWuYx0KZdLfufM-35">
          <mxGeometry relative="1" as="geometry">
            <mxPoint x="360" y="520" as="targetPoint" />
            <mxPoint x="669.5" y="480" as="sourcePoint" />
            <Array as="points">
              <mxPoint x="670" y="480" />
              <mxPoint x="423" y="480" />
            </Array>
          </mxGeometry>
        </mxCell>
        <mxCell id="BId1RjeWuYx0KZdLfufM-33" value="Command involves temperature" style="edgeLabel;html=1;align=center;verticalAlign=middle;resizable=0;points=[];" vertex="1" connectable="0" parent="BId1RjeWuYx0KZdLfufM-32">
          <mxGeometry x="0.2755" y="2" relative="1" as="geometry">
            <mxPoint x="-44" y="28" as="offset" />
          </mxGeometry>
        </mxCell>
        <mxCell id="BId1RjeWuYx0KZdLfufM-35" value="Adjusting Thermostate" style="rounded=1;whiteSpace=wrap;html=1;" vertex="1" parent="1">
          <mxGeometry x="370" y="550" width="120" height="60" as="geometry" />
        </mxCell>
        <mxCell id="BId1RjeWuYx0KZdLfufM-36" value="" style="edgeStyle=orthogonalEdgeStyle;html=1;verticalAlign=bottom;endArrow=open;endSize=8;strokeColor=#ff0000;rounded=0;" edge="1" parent="1">
          <mxGeometry relative="1" as="geometry">
            <mxPoint x="670" y="550" as="targetPoint" />
            <mxPoint x="670" y="460" as="sourcePoint" />
            <Array as="points">
              <mxPoint x="670" y="550" />
            </Array>
          </mxGeometry>
        </mxCell>
        <mxCell id="BId1RjeWuYx0KZdLfufM-37" value="Command involves lighting" style="edgeLabel;html=1;align=center;verticalAlign=middle;resizable=0;points=[];" vertex="1" connectable="0" parent="BId1RjeWuYx0KZdLfufM-36">
          <mxGeometry x="0.2755" y="2" relative="1" as="geometry">
            <mxPoint x="218" y="-7" as="offset" />
          </mxGeometry>
        </mxCell>
        <mxCell id="BId1RjeWuYx0KZdLfufM-38" value="Controlling lights" style="rounded=1;whiteSpace=wrap;html=1;" vertex="1" parent="1">
          <mxGeometry x="820" y="550" width="120" height="60" as="geometry" />
        </mxCell>
        <mxCell id="BId1RjeWuYx0KZdLfufM-39" value="" style="edgeStyle=orthogonalEdgeStyle;html=1;verticalAlign=bottom;endArrow=open;endSize=8;strokeColor=#ff0000;rounded=0;exitX=0.5;exitY=1;exitDx=0;exitDy=0;" edge="1" parent="1">
          <mxGeometry relative="1" as="geometry">
            <mxPoint x="890" y="550" as="targetPoint" />
            <mxPoint x="670" y="460" as="sourcePoint" />
            <Array as="points">
              <mxPoint x="670" y="480" />
              <mxPoint x="890" y="480" />
              <mxPoint x="890" y="530" />
              <mxPoint x="890" y="530" />
            </Array>
          </mxGeometry>
        </mxCell>
        <mxCell id="BId1RjeWuYx0KZdLfufM-40" value="Command involves security" style="edgeLabel;html=1;align=center;verticalAlign=middle;resizable=0;points=[];" vertex="1" connectable="0" parent="BId1RjeWuYx0KZdLfufM-39">
          <mxGeometry x="0.2755" y="2" relative="1" as="geometry">
            <mxPoint x="-178" y="32" as="offset" />
          </mxGeometry>
        </mxCell>
        <mxCell id="BId1RjeWuYx0KZdLfufM-45" value="Monitoring Security" style="rounded=1;whiteSpace=wrap;html=1;" vertex="1" parent="1">
          <mxGeometry x="610" y="550" width="120" height="60" as="geometry" />
        </mxCell>
        <mxCell id="BId1RjeWuYx0KZdLfufM-49" value="" style="edgeStyle=orthogonalEdgeStyle;html=1;verticalAlign=bottom;endArrow=open;endSize=8;strokeColor=#ff0000;rounded=0;exitX=0.5;exitY=1;exitDx=0;exitDy=0;entryX=0.5;entryY=0;entryDx=0;entryDy=0;" edge="1" parent="1" source="BId1RjeWuYx0KZdLfufM-45" target="BId1RjeWuYx0KZdLfufM-51">
          <mxGeometry relative="1" as="geometry">
            <mxPoint x="540" y="680" as="targetPoint" />
            <mxPoint x="669.5" y="630" as="sourcePoint" />
            <Array as="points">
              <mxPoint x="670" y="630" />
              <mxPoint x="560" y="630" />
            </Array>
          </mxGeometry>
        </mxCell>
        <mxCell id="BId1RjeWuYx0KZdLfufM-50" value="Security Trigger detected" style="edgeLabel;html=1;align=center;verticalAlign=middle;resizable=0;points=[];" vertex="1" connectable="0" parent="BId1RjeWuYx0KZdLfufM-49">
          <mxGeometry x="0.2755" y="2" relative="1" as="geometry">
            <mxPoint x="-22" y="18" as="offset" />
          </mxGeometry>
        </mxCell>
        <mxCell id="BId1RjeWuYx0KZdLfufM-51" value="Triggering Alarm" style="rounded=1;whiteSpace=wrap;html=1;" vertex="1" parent="1">
          <mxGeometry x="500" y="680" width="120" height="60" as="geometry" />
        </mxCell>
        <mxCell id="BId1RjeWuYx0KZdLfufM-52" value="" style="edgeStyle=orthogonalEdgeStyle;html=1;verticalAlign=bottom;endArrow=open;endSize=8;strokeColor=#ff0000;rounded=0;exitX=0.5;exitY=1;exitDx=0;exitDy=0;entryX=0.5;entryY=0;entryDx=0;entryDy=0;" edge="1" parent="1" target="BId1RjeWuYx0KZdLfufM-54">
          <mxGeometry relative="1" as="geometry">
            <mxPoint x="760" y="660" as="targetPoint" />
            <mxPoint x="670" y="620" as="sourcePoint" />
            <Array as="points">
              <mxPoint x="670" y="630" />
              <mxPoint x="760" y="630" />
            </Array>
          </mxGeometry>
        </mxCell>
        <mxCell id="BId1RjeWuYx0KZdLfufM-53" value="No Trigger detected" style="edgeLabel;html=1;align=center;verticalAlign=middle;resizable=0;points=[];" vertex="1" connectable="0" parent="BId1RjeWuYx0KZdLfufM-52">
          <mxGeometry x="0.2755" y="2" relative="1" as="geometry">
            <mxPoint x="1" y="22" as="offset" />
          </mxGeometry>
        </mxCell>
        <mxCell id="BId1RjeWuYx0KZdLfufM-54" value="Logging Security status" style="rounded=1;whiteSpace=wrap;html=1;" vertex="1" parent="1">
          <mxGeometry x="700" y="680" width="120" height="60" as="geometry" />
        </mxCell>
        <mxCell id="BId1RjeWuYx0KZdLfufM-55" value="" style="ellipse;html=1;shape=endState;fillColor=#000000;strokeColor=#ff0000;" vertex="1" parent="1">
          <mxGeometry x="270" y="800" width="30" height="30" as="geometry" />
        </mxCell>
        <mxCell id="BId1RjeWuYx0KZdLfufM-56" value="" style="edgeStyle=orthogonalEdgeStyle;html=1;verticalAlign=bottom;endArrow=open;endSize=8;strokeColor=#ff0000;rounded=0;entryX=0.5;entryY=0;entryDx=0;entryDy=0;" edge="1" parent="1" target="BId1RjeWuYx0KZdLfufM-55">
          <mxGeometry relative="1" as="geometry">
            <mxPoint x="300" y="780" as="targetPoint" />
            <mxPoint x="410" y="240" as="sourcePoint" />
            <Array as="points">
              <mxPoint x="410" y="300" />
              <mxPoint x="285" y="300" />
            </Array>
          </mxGeometry>
        </mxCell>
        <mxCell id="BId1RjeWuYx0KZdLfufM-57" value="Login failed recorded" style="edgeLabel;html=1;align=center;verticalAlign=middle;resizable=0;points=[];" vertex="1" connectable="0" parent="BId1RjeWuYx0KZdLfufM-56">
          <mxGeometry x="0.2755" y="2" relative="1" as="geometry">
            <mxPoint as="offset" />
          </mxGeometry>
        </mxCell>
        <mxCell id="BId1RjeWuYx0KZdLfufM-58" value="" style="edgeStyle=orthogonalEdgeStyle;html=1;verticalAlign=bottom;endArrow=open;endSize=8;strokeColor=#ff0000;rounded=0;entryX=1;entryY=0.5;entryDx=0;entryDy=0;" edge="1" parent="1" target="BId1RjeWuYx0KZdLfufM-55">
          <mxGeometry relative="1" as="geometry">
            <mxPoint x="310" y="815" as="targetPoint" />
            <mxPoint x="500" y="710" as="sourcePoint" />
            <Array as="points">
              <mxPoint x="450" y="710" />
              <mxPoint x="450" y="815" />
            </Array>
          </mxGeometry>
        </mxCell>
        <mxCell id="BId1RjeWuYx0KZdLfufM-59" value="Alarm triggered and logged" style="edgeLabel;html=1;align=center;verticalAlign=middle;resizable=0;points=[];" vertex="1" connectable="0" parent="BId1RjeWuYx0KZdLfufM-58">
          <mxGeometry x="0.2755" y="2" relative="1" as="geometry">
            <mxPoint x="32" y="-47" as="offset" />
          </mxGeometry>
        </mxCell>
        <mxCell id="BId1RjeWuYx0KZdLfufM-61" value="" style="edgeStyle=orthogonalEdgeStyle;html=1;verticalAlign=bottom;endArrow=open;endSize=8;strokeColor=#ff0000;rounded=0;exitX=0.5;exitY=1;exitDx=0;exitDy=0;entryX=1;entryY=0.5;entryDx=0;entryDy=0;" edge="1" parent="1">
          <mxGeometry relative="1" as="geometry">
            <mxPoint x="300" y="815" as="targetPoint" />
            <mxPoint x="760" y="740" as="sourcePoint" />
            <Array as="points">
              <mxPoint x="760" y="815" />
            </Array>
          </mxGeometry>
        </mxCell>
        <mxCell id="BId1RjeWuYx0KZdLfufM-62" value="Process completed" style="edgeLabel;html=1;align=center;verticalAlign=middle;resizable=0;points=[];" vertex="1" connectable="0" parent="BId1RjeWuYx0KZdLfufM-61">
          <mxGeometry x="0.2755" y="2" relative="1" as="geometry">
            <mxPoint x="266" y="-47" as="offset" />
          </mxGeometry>
        </mxCell>
        <mxCell id="BId1RjeWuYx0KZdLfufM-63" value="" style="edgeStyle=orthogonalEdgeStyle;html=1;verticalAlign=bottom;endArrow=open;endSize=8;strokeColor=#ff0000;rounded=0;entryX=1;entryY=0.5;entryDx=0;entryDy=0;" edge="1" parent="1" target="BId1RjeWuYx0KZdLfufM-55">
          <mxGeometry relative="1" as="geometry">
            <mxPoint x="300" y="820" as="targetPoint" />
            <mxPoint x="740" y="430" as="sourcePoint" />
            <Array as="points">
              <mxPoint x="1020" y="430" />
              <mxPoint x="1020" y="810" />
              <mxPoint x="300" y="810" />
            </Array>
          </mxGeometry>
        </mxCell>
        <mxCell id="BId1RjeWuYx0KZdLfufM-64" value="Log out" style="edgeLabel;html=1;align=center;verticalAlign=middle;resizable=0;points=[];" vertex="1" connectable="0" parent="BId1RjeWuYx0KZdLfufM-63">
          <mxGeometry x="0.2755" y="2" relative="1" as="geometry">
            <mxPoint x="213" y="-202" as="offset" />
          </mxGeometry>
        </mxCell>
      </root>
    </mxGraphModel>
  </diagram>
</mxfile>
